<?xml version="1.0" standalone="no"?><!DOCTYPE svg PUBLIC "-//W3C//DTD SVG 1.1//EN" "http://www.w3.org/Graphics/SVG/1.1/DTD/svg11.dtd"><svg class="icon" width="200px" height="200.00px" viewBox="0 0 1024 1024" version="1.1" xmlns="http://www.w3.org/2000/svg"><path fill="#2c2c2c" d="M770.45 489.57c-0.18-0.18-0.43-0.23-0.61-0.4L353.81 73.13c-12.36-12.36-32.39-12.36-44.74 0-12.36 12.36-12.36 32.39 0 44.74l394.17 394.17-394.18 394.17c-12.36 12.36-12.36 32.39 0 44.74 12.36 12.36 32.39 12.36 44.74 0l416.03-416.03c0.18-0.18 0.43-0.22 0.61-0.4 6.21-6.2 9.28-14.34 9.25-22.48 0.03-8.13-3.04-16.26-9.24-22.47z" /></svg>