<?xml version="1.0" standalone="no"?><!DOCTYPE svg PUBLIC "-//W3C//DTD SVG 1.1//EN" "http://www.w3.org/Graphics/SVG/1.1/DTD/svg11.dtd"><svg class="icon" width="200px" height="200.00px" viewBox="0 0 1024 1024" version="1.1" xmlns="http://www.w3.org/2000/svg"><path fill="#2c2c2c" d="M259.712555 764.156974l-27.946492 0c-95.586009 0-167.679977-72.072479-167.679977-167.678954 0-95.587032 72.093968-167.679977 167.679977-167.679977l27.946492 0L259.712555 764.156974 259.712555 764.156974zM203.820594 487.770156c-49.91176 11.462053-83.841523 53.686736-83.841523 108.707864 0 55.04057 33.929764 97.223299 83.841523 108.74982L203.820594 487.770156 203.820594 487.770156zM203.820594 487.770156M790.695908 764.156974l-27.945469 0L762.750439 428.79702l27.945469 0c95.631034 0 167.681 72.092945 167.681 167.679977C958.377932 692.085518 886.327966 764.156974 790.695908 764.156974M818.643424 487.770156 818.643424 705.183837c49.912783-11.483542 83.883479-53.708226 83.883479-108.730377C902.526903 541.392424 868.556207 499.253698 818.643424 487.770156M818.643424 903.889435l0-55.891961c13.928221 0 27.947516-8.69094 27.947516-27.947516l55.935963 0C902.526903 867.864964 866.417497 903.889435 818.643424 903.889435M706.859501 847.997474l111.783923 0 0 55.891961L706.859501 903.889435 706.859501 847.997474 706.859501 847.997474zM706.859501 847.997474M637.691165 960.044386c-46.154179 0-83.84357-37.617759-83.84357-83.839477 0-46.200228 37.689391-83.839477 83.84357-83.839477 46.198182 0 83.839477 37.638225 83.839477 83.839477C721.530642 922.426627 683.977351 960.044386 637.691165 960.044386M637.691165 848.25944c-15.371082 0-27.947516 12.531408-27.947516 27.946492 0 15.436574 12.57541 27.945469 27.947516 27.945469 15.456017 0 27.947516-12.508895 27.947516-27.945469C665.638681 860.790848 653.146159 848.25944 637.691165 848.25944M818.643424 373.077997l-55.891961 0c0-138.79409-112.833835-251.692393-251.518431-251.692393-138.727575 0-251.520477 112.899326-251.520477 251.692393l-55.892985 0c0-169.57821 137.942699-307.5864 307.412438-307.5864C680.700725 65.491597 818.643424 203.499787 818.643424 373.077997" /></svg>