<?xml version="1.0" standalone="no"?><!DOCTYPE svg PUBLIC "-//W3C//DTD SVG 1.1//EN" "http://www.w3.org/Graphics/SVG/1.1/DTD/svg11.dtd"><svg class="icon" width="200px" height="200.00px" viewBox="0 0 1024 1024" version="1.1" xmlns="http://www.w3.org/2000/svg"><path fill="#2c2c2c" d="M515.549867 387.652267a29.184 29.184 0 0 0-29.149867 29.149866v180.6336c0 16.0768 13.073067 29.149867 29.149867 29.149867H836.266667v-238.933333h-320.7168z m320.7168 290.133333h-320.7168a80.452267 80.452267 0 0 1-80.349867-80.349867v-180.6336a80.452267 80.452267 0 0 1 80.349867-80.349866H836.266667V250.0608A62.395733 62.395733 0 0 0 773.9392 187.733333H250.0608C215.688533 187.733333 187.733333 215.722667 187.733333 250.0608v519.031467c0 34.338133 27.9552 62.293333 62.327467 62.293333h523.8784a62.395733 62.395733 0 0 0 62.327467-62.293333v-91.306667z m-586.205867 204.8A113.664 113.664 0 0 1 136.533333 769.092267V250.0608A113.664 113.664 0 0 1 250.0608 136.533333h523.8784A113.664 113.664 0 0 1 887.466667 250.0608v519.031467a113.664 113.664 0 0 1-113.527467 113.493333H250.0608z m338.7392-366.933333a34.167467 34.167467 0 0 0 68.266667 0 34.167467 34.167467 0 0 0-68.266667 0z m-51.2 0c0-47.035733 38.2976-85.333333 85.333333-85.333334 47.069867 0 85.333333 38.2976 85.333334 85.333334 0 47.069867-38.263467 85.333333-85.333334 85.333333a85.435733 85.435733 0 0 1-85.333333-85.333333z" /></svg>