<?xml version="1.0" standalone="no"?><!DOCTYPE svg PUBLIC "-//W3C//DTD SVG 1.1//EN" "http://www.w3.org/Graphics/SVG/1.1/DTD/svg11.dtd"><svg class="icon" width="200px" height="200.00px" viewBox="0 0 1024 1024" version="1.1" xmlns="http://www.w3.org/2000/svg"><path fill="#2c2c2c" d="M819.2 350.1056a28.910933 28.910933 0 0 1-15.189333 25.361067h-143.325867l0.068267-187.733334h129.4336c16.008533 0 29.013333 13.038933 29.013333 29.013334v133.358933z m-51.2 410.4192c0 34.372267-27.989333 62.327467-62.327467 62.327467H301.2608A62.395733 62.395733 0 0 1 238.933333 760.5248v-330.205867h118.545067v85.2992c0 14.267733 7.133867 27.511467 19.114667 35.4304 7.168 4.778667 15.496533 7.168 23.722666 7.168 5.563733 0 11.093333-1.092267 16.247467-3.310933l92.740267-36.4544 92.740266 36.4544 1.536 0.580267c11.8784 3.822933 25.019733 1.911467 36.010667-5.154134 11.741867-7.509333 19.421867-19.7632 21.026133-33.518933l0.068267-86.493867H768v330.205867z m-580.266667-543.744c0-16.042667 13.0048-29.013333 29.013334-29.013333h140.731733V375.466667H202.922667a28.910933 28.910933 0 0 1-15.189334-25.3952V216.746667zM609.621333 375.466667v127.3856l-84.241066-33.109334a39.594667 39.594667 0 0 0-32.426667 0.1024l-84.2752 33.109334V187.938133h200.9088V375.466667z m180.565334-238.933334H216.746667A80.2816 80.2816 0 0 0 136.533333 216.746667v133.3248a80.213333 80.213333 0 0 0 51.2 74.581333v335.872a113.664 113.664 0 0 0 113.527467 113.493333h404.411733A113.664 113.664 0 0 0 819.2 760.5248v-335.837867a80.213333 80.213333 0 0 0 51.2-74.581333V216.746667A80.2816 80.2816 0 0 0 790.186667 136.533333z" /></svg>