<?xml version="1.0" standalone="no"?><!DOCTYPE svg PUBLIC "-//W3C//DTD SVG 1.1//EN" "http://www.w3.org/Graphics/SVG/1.1/DTD/svg11.dtd"><svg class="icon" width="200px" height="200.00px" viewBox="0 0 1024 1024" version="1.1" xmlns="http://www.w3.org/2000/svg"><path fill="#2c2c2c" d="M851.642182 296.145455l-192.977455-182.830546v178.315636c0 2.490182 2.024727 4.514909 4.514909 4.51491h188.462546zM588.846545 104.727273H209.454545A58.181818 58.181818 0 0 0 151.272727 162.909091v721.454545A58.181818 58.181818 0 0 0 209.454545 942.545455h605.09091a58.181818 58.181818 0 0 0 58.181818-58.181819V365.963636h-209.547637a74.333091 74.333091 0 0 1-74.333091-74.333091V104.727273zM942.545455 884.363636a128 128 0 0 1-128 128H209.454545A128 128 0 0 1 81.454545 884.363636V162.909091A128 128 0 0 1 209.454545 34.909091h444.788364a58.181818 58.181818 0 0 1 40.029091 15.941818l230.097455 218.018909a58.181818 58.181818 0 0 1 18.176 42.24V884.363636z m-698.181819-209.454545h488.727273a34.909091 34.909091 0 0 1 0 69.818182h-488.727273a34.909091 34.909091 0 0 1 0-69.818182z m0-186.181818h488.727273a34.909091 34.909091 0 0 1 0 69.818182h-488.727273a34.909091 34.909091 0 0 1 0-69.818182z" /></svg>